<mxfile host="Electron" agent="Mozilla/5.0 (Windows NT 10.0; Win64; x64) AppleWebKit/537.36 (KHTML, like Gecko) draw.io/25.0.2 Chrome/128.0.6613.186 Electron/32.2.5 Safari/537.36" version="25.0.2">
  <diagram name="Page-1" id="FmvBLXy-JmHcjqCjBVsw">
    <mxGraphModel dx="780" dy="504" grid="0" gridSize="10" guides="1" tooltips="1" connect="1" arrows="1" fold="1" page="1" pageScale="1" pageWidth="850" pageHeight="1100" math="0" shadow="0">
      <root>
        <mxCell id="0" />
        <mxCell id="1" parent="0" />
        <mxCell id="E7T3WjMvSJ9nRPuWbKTQ-13" value="+ Instructor" style="swimlane;fontStyle=1;align=center;verticalAlign=top;childLayout=stackLayout;horizontal=1;startSize=26;horizontalStack=0;resizeParent=1;resizeParentMax=0;resizeLast=0;collapsible=1;marginBottom=0;whiteSpace=wrap;html=1;" parent="1" vertex="1">
          <mxGeometry x="5" y="237" width="190" height="94" as="geometry" />
        </mxCell>
        <mxCell id="E7T3WjMvSJ9nRPuWbKTQ-14" value="&amp;nbsp; &amp;nbsp;instrutorName: String&lt;div&gt;&amp;nbsp; &amp;nbsp;instructorID: int&lt;/div&gt;" style="text;strokeColor=none;fillColor=none;align=left;verticalAlign=top;spacingLeft=4;spacingRight=4;overflow=hidden;rotatable=0;points=[[0,0.5],[1,0.5]];portConstraint=eastwest;whiteSpace=wrap;html=1;" parent="E7T3WjMvSJ9nRPuWbKTQ-13" vertex="1">
          <mxGeometry y="26" width="190" height="34" as="geometry" />
        </mxCell>
        <mxCell id="E7T3WjMvSJ9nRPuWbKTQ-15" value="" style="line;strokeWidth=1;fillColor=none;align=left;verticalAlign=middle;spacingTop=-1;spacingLeft=3;spacingRight=3;rotatable=0;labelPosition=right;points=[];portConstraint=eastwest;strokeColor=inherit;" parent="E7T3WjMvSJ9nRPuWbKTQ-13" vertex="1">
          <mxGeometry y="60" width="190" height="8" as="geometry" />
        </mxCell>
        <mxCell id="E7T3WjMvSJ9nRPuWbKTQ-16" value="+ Instructor(name: String, ID: int)&amp;nbsp;" style="text;strokeColor=none;fillColor=none;align=left;verticalAlign=top;spacingLeft=4;spacingRight=4;overflow=hidden;rotatable=0;points=[[0,0.5],[1,0.5]];portConstraint=eastwest;whiteSpace=wrap;html=1;" parent="E7T3WjMvSJ9nRPuWbKTQ-13" vertex="1">
          <mxGeometry y="68" width="190" height="26" as="geometry" />
        </mxCell>
        <mxCell id="E7T3WjMvSJ9nRPuWbKTQ-17" value="" style="html=1;whiteSpace=wrap;aspect=fixed;shape=isoRectangle;rotation=90;" parent="1" vertex="1">
          <mxGeometry x="299.94" y="260.09000000000003" width="60.12" height="33.82" as="geometry" />
        </mxCell>
        <mxCell id="E7T3WjMvSJ9nRPuWbKTQ-18" value="+ Student" style="swimlane;fontStyle=1;align=center;verticalAlign=top;childLayout=stackLayout;horizontal=1;startSize=26;horizontalStack=0;resizeParent=1;resizeParentMax=0;resizeLast=0;collapsible=1;marginBottom=0;whiteSpace=wrap;html=1;" parent="1" vertex="1">
          <mxGeometry x="233" y="47" width="190" height="94" as="geometry" />
        </mxCell>
        <mxCell id="E7T3WjMvSJ9nRPuWbKTQ-19" value="&amp;nbsp; &amp;nbsp;studentName: String&lt;div&gt;&amp;nbsp; &amp;nbsp;studentID: int&lt;/div&gt;" style="text;strokeColor=none;fillColor=none;align=left;verticalAlign=top;spacingLeft=4;spacingRight=4;overflow=hidden;rotatable=0;points=[[0,0.5],[1,0.5]];portConstraint=eastwest;whiteSpace=wrap;html=1;" parent="E7T3WjMvSJ9nRPuWbKTQ-18" vertex="1">
          <mxGeometry y="26" width="190" height="34" as="geometry" />
        </mxCell>
        <mxCell id="E7T3WjMvSJ9nRPuWbKTQ-20" value="" style="line;strokeWidth=1;fillColor=none;align=left;verticalAlign=middle;spacingTop=-1;spacingLeft=3;spacingRight=3;rotatable=0;labelPosition=right;points=[];portConstraint=eastwest;strokeColor=inherit;" parent="E7T3WjMvSJ9nRPuWbKTQ-18" vertex="1">
          <mxGeometry y="60" width="190" height="8" as="geometry" />
        </mxCell>
        <mxCell id="E7T3WjMvSJ9nRPuWbKTQ-21" value="+ Student(name: String, ID: int)&amp;nbsp;" style="text;strokeColor=none;fillColor=none;align=left;verticalAlign=top;spacingLeft=4;spacingRight=4;overflow=hidden;rotatable=0;points=[[0,0.5],[1,0.5]];portConstraint=eastwest;whiteSpace=wrap;html=1;" parent="E7T3WjMvSJ9nRPuWbKTQ-18" vertex="1">
          <mxGeometry y="68" width="190" height="26" as="geometry" />
        </mxCell>
        <mxCell id="E7T3WjMvSJ9nRPuWbKTQ-22" value="+ Course" style="swimlane;fontStyle=1;align=center;verticalAlign=top;childLayout=stackLayout;horizontal=1;startSize=26;horizontalStack=0;resizeParent=1;resizeParentMax=0;resizeLast=0;collapsible=1;marginBottom=0;whiteSpace=wrap;html=1;" parent="1" vertex="1">
          <mxGeometry x="235" y="413" width="190" height="94" as="geometry" />
        </mxCell>
        <mxCell id="E7T3WjMvSJ9nRPuWbKTQ-23" value="&amp;nbsp; &amp;nbsp;courseName: String&lt;div&gt;&amp;nbsp; &amp;nbsp;courseID: int&lt;/div&gt;" style="text;strokeColor=none;fillColor=none;align=left;verticalAlign=top;spacingLeft=4;spacingRight=4;overflow=hidden;rotatable=0;points=[[0,0.5],[1,0.5]];portConstraint=eastwest;whiteSpace=wrap;html=1;" parent="E7T3WjMvSJ9nRPuWbKTQ-22" vertex="1">
          <mxGeometry y="26" width="190" height="34" as="geometry" />
        </mxCell>
        <mxCell id="E7T3WjMvSJ9nRPuWbKTQ-24" value="" style="line;strokeWidth=1;fillColor=none;align=left;verticalAlign=middle;spacingTop=-1;spacingLeft=3;spacingRight=3;rotatable=0;labelPosition=right;points=[];portConstraint=eastwest;strokeColor=inherit;" parent="E7T3WjMvSJ9nRPuWbKTQ-22" vertex="1">
          <mxGeometry y="60" width="190" height="8" as="geometry" />
        </mxCell>
        <mxCell id="E7T3WjMvSJ9nRPuWbKTQ-25" value="+ Course(name: String, ID: int)&amp;nbsp;" style="text;strokeColor=none;fillColor=none;align=left;verticalAlign=top;spacingLeft=4;spacingRight=4;overflow=hidden;rotatable=0;points=[[0,0.5],[1,0.5]];portConstraint=eastwest;whiteSpace=wrap;html=1;" parent="E7T3WjMvSJ9nRPuWbKTQ-22" vertex="1">
          <mxGeometry y="68" width="190" height="26" as="geometry" />
        </mxCell>
        <mxCell id="E7T3WjMvSJ9nRPuWbKTQ-28" value="" style="line;strokeWidth=2;html=1;" parent="1" vertex="1">
          <mxGeometry x="195" y="272" width="118" height="10" as="geometry" />
        </mxCell>
        <mxCell id="E7T3WjMvSJ9nRPuWbKTQ-29" value="" style="line;strokeWidth=2;direction=south;html=1;" parent="1" vertex="1">
          <mxGeometry x="325" y="305" width="10" height="108" as="geometry" />
        </mxCell>
        <mxCell id="E7T3WjMvSJ9nRPuWbKTQ-30" value="" style="line;strokeWidth=2;direction=south;html=1;" parent="1" vertex="1">
          <mxGeometry x="325" y="141" width="10" height="108" as="geometry" />
        </mxCell>
        <mxCell id="E7T3WjMvSJ9nRPuWbKTQ-31" value="" style="endArrow=none;dashed=1;html=1;rounded=0;" parent="1" edge="1">
          <mxGeometry width="50" height="50" relative="1" as="geometry">
            <mxPoint x="478" y="277" as="sourcePoint" />
            <mxPoint x="347" y="277" as="targetPoint" />
          </mxGeometry>
        </mxCell>
        <mxCell id="E7T3WjMvSJ9nRPuWbKTQ-33" value="0..*" style="text;align=center;fontStyle=1;verticalAlign=middle;spacingLeft=3;spacingRight=3;strokeColor=none;rotatable=0;points=[[0,0.5],[1,0.5]];portConstraint=eastwest;html=1;" parent="1" vertex="1">
          <mxGeometry x="335" y="149" width="37" height="18" as="geometry" />
        </mxCell>
        <mxCell id="E7T3WjMvSJ9nRPuWbKTQ-34" value="0..*" style="text;align=center;fontStyle=1;verticalAlign=middle;spacingLeft=3;spacingRight=3;strokeColor=none;rotatable=0;points=[[0,0.5],[1,0.5]];portConstraint=eastwest;html=1;" parent="1" vertex="1">
          <mxGeometry x="201" y="252" width="37" height="18" as="geometry" />
        </mxCell>
        <mxCell id="E7T3WjMvSJ9nRPuWbKTQ-35" value="1..*" style="text;align=center;fontStyle=1;verticalAlign=middle;spacingLeft=3;spacingRight=3;strokeColor=none;rotatable=0;points=[[0,0.5],[1,0.5]];portConstraint=eastwest;html=1;" parent="1" vertex="1">
          <mxGeometry x="340" y="384" width="37" height="18" as="geometry" />
        </mxCell>
        <mxCell id="B_YACXxNHpPkR655vNj8-1" value="&lt;b&gt;+&amp;nbsp;&lt;/b&gt;&lt;span style=&quot;font-weight: 700;&quot;&gt;Enrollment&lt;/span&gt;" style="swimlane;fontStyle=0;childLayout=stackLayout;horizontal=1;startSize=26;fillColor=none;horizontalStack=0;resizeParent=1;resizeParentMax=0;resizeLast=0;collapsible=1;marginBottom=0;whiteSpace=wrap;html=1;" vertex="1" parent="1">
          <mxGeometry x="481" y="242" width="140" height="70" as="geometry" />
        </mxCell>
        <mxCell id="B_YACXxNHpPkR655vNj8-2" value="&lt;div&gt;hour: int&lt;/div&gt;&lt;div&gt;classRoom: String&lt;/div&gt;" style="text;strokeColor=none;fillColor=none;align=left;verticalAlign=top;spacingLeft=4;spacingRight=4;overflow=hidden;rotatable=0;points=[[0,0.5],[1,0.5]];portConstraint=eastwest;whiteSpace=wrap;html=1;" vertex="1" parent="B_YACXxNHpPkR655vNj8-1">
          <mxGeometry y="26" width="140" height="44" as="geometry" />
        </mxCell>
      </root>
    </mxGraphModel>
  </diagram>
</mxfile>
